<?xml version="1.0" standalone="no"?>
<!DOCTYPE svg PUBLIC "-//W3C//DTD SVG 20010904//EN"
 "http://www.w3.org/TR/2001/REC-SVG-20010904/DTD/svg10.dtd">
<svg version="1.0" xmlns="http://www.w3.org/2000/svg"
 width="260.000000pt" height="260.000000pt" viewBox="0 0 260.000000 260.000000"
 preserveAspectRatio="xMidYMid meet">
<metadata>
Created by potrace 1.14, written by Peter Selinger 2001-2017
</metadata>
<g transform="translate(0.000000,260.000000) scale(0.100000,-0.100000)"
fill="#000000" stroke="none">
<path d="M1228 2466 c-67 -46 -75 -68 -77 -242 -1 -45 5 -41 -88 -60 -38 -7
-157 -59 -217 -94 l-68 -40 -71 70 c-75 74 -106 88 -172 77 -67 -11 -115 -69
-115 -140 0 -55 13 -77 85 -150 l68 -67 -26 -37 c-40 -57 -92 -179 -113 -260
-13 -51 -23 -73 -34 -73 -200 -3 -215 -7 -264 -73 -28 -38 -28 -116 0 -153 45
-60 67 -69 177 -69 l102 0 20 -80 c23 -87 59 -172 106 -248 l30 -49 -60 -59
c-96 -94 -114 -150 -71 -227 26 -46 70 -72 123 -72 55 0 79 13 149 85 l65 66
61 -37 c76 -45 181 -88 255 -105 32 -6 57 -17 58 -23 0 -6 1 -52 2 -103 2 -99
13 -124 71 -167 37 -28 115 -28 153 0 63 47 71 71 72 234 l1 46 73 18 c76 19
217 80 268 116 l30 22 70 -71 c75 -75 107 -89 174 -78 69 11 116 70 114 144
-1 55 -7 66 -82 143 l-68 68 31 50 c57 93 93 182 116 292 3 13 7 26 8 28 2 1
49 4 104 5 109 2 132 12 176 71 28 37 28 115 0 153 -44 58 -68 68 -172 70 -53
1 -100 2 -103 2 -3 1 -12 27 -19 59 -16 67 -15 62 -24 87 -4 11 -12 32 -18 47
-5 15 -30 61 -53 103 l-44 76 66 67 c72 74 83 95 83 153 0 98 -106 167 -201
130 -13 -5 -54 -39 -91 -76 l-67 -67 -28 20 c-68 47 -230 116 -297 125 -21 3
-39 7 -41 8 -2 2 -5 50 -7 106 -4 110 -14 134 -70 176 -38 29 -111 30 -150 3z"/>
</g>
</svg>
