<svg width="500" height="100" viewBox="0 0 500 100" fill="none" xmlns="http://www.w3.org/2000/svg">
<rect x="219.223" y="21.7804" width="25.0264" height="0.972232" rx="0.486116" transform="rotate(72.1419 219.223 21.7804)" fill="#333333"/>
<path d="M220.083 22.4826C220.083 22.4826 221.193 21.1296 225.012 19.9238C228.83 18.7181 229.221 18.4723 231.293 18.4751C233.366 18.4779 232.878 30.3393 232.878 30.3393C232.878 30.3393 230.355 29.9665 227.727 30.6403C225.099 31.314 223.885 33.7136 223.885 33.7136L220.083 22.4826Z" fill="#990010"/>
<path d="M233.014 21.2069C233.014 21.2069 234.66 20.9309 235.641 20.5332C236.71 20.1002 238.188 19.0384 238.188 19.0384C238.188 19.0384 237.935 22.5873 238.14 24.8462C238.322 26.8581 239.056 29.9371 239.056 29.9371C239.056 29.9371 237.206 32.1921 234.578 32.8659C231.951 33.5396 233.78 31.0793 233.78 31.0793L233.014 21.2069Z" fill="#990010"/>
<path d="M64.32 24C64.96 24 65.4933 24.24 65.92 24.72C66.4 25.1467 66.64 25.7067 66.64 26.4V77.6C66.64 78.2933 66.4 78.88 65.92 79.36C65.44 79.7867 64.8533 80 64.16 80C63.4133 80 62.8 79.7867 62.32 79.36C61.84 78.88 61.6 78.2933 61.6 77.6V33.6L42.8 62.08C42.2667 62.7733 41.6533 63.0933 40.96 63.04H40.8C40.16 63.04 39.5733 62.72 39.04 62.08L20.24 33.44V77.6C20.24 78.2933 20 78.88 19.52 79.36C19.0933 79.7867 18.5333 80 17.84 80C17.1467 80 16.5867 79.7867 16.16 79.36C15.7333 78.88 15.52 78.2933 15.52 77.6V26.4C15.52 25.76 15.7333 25.2 16.16 24.72C16.64 24.24 17.2267 24 17.92 24C18.2933 24 18.6933 24.1067 19.12 24.32C19.5467 24.48 19.8667 24.72 20.08 25.04L41.04 56.48L62.16 25.04C62.7467 24.24 63.4667 23.8933 64.32 24ZM85.1319 77.6C85.1319 78.2933 84.8919 78.88 84.4119 79.36C83.9852 79.7867 83.4252 80 82.7319 80C82.0385 80 81.4519 79.7867 80.9719 79.36C80.5452 78.88 80.3319 78.2933 80.3319 77.6V40.8C80.3319 40.1067 80.5452 39.5467 80.9719 39.12C81.4519 38.64 82.0385 38.4 82.7319 38.4C83.4252 38.4 83.9852 38.64 84.4119 39.12C84.8919 39.5467 85.1319 40.1067 85.1319 40.8V77.6ZM82.7319 33.04C81.6652 33.04 80.8385 32.8 80.2519 32.32C79.6652 31.7867 79.3719 31.04 79.3719 30.08V29.28C79.3719 28.32 79.6652 27.6 80.2519 27.12C80.8919 26.5867 81.7452 26.32 82.8119 26.32C84.9452 26.32 86.0119 27.3067 86.0119 29.28V30.08C86.0119 31.04 85.7185 31.7867 85.1319 32.32C84.5985 32.8 83.7985 33.04 82.7319 33.04ZM116.881 38.16C121.841 38.16 125.468 39.6267 127.761 42.56C130.108 45.44 131.281 49.28 131.281 54.08V77.6C131.281 78.2933 131.041 78.88 130.561 79.36C130.081 79.7867 129.521 80 128.881 80C128.188 80 127.601 79.7867 127.121 79.36C126.695 78.88 126.481 78.2933 126.481 77.6V54.32C126.481 50.8533 125.601 48.0533 123.841 45.92C122.135 43.7333 119.468 42.64 115.841 42.64C113.548 42.64 111.361 43.1733 109.281 44.24C107.255 45.3067 105.601 46.7467 104.321 48.56C103.041 50.32 102.401 52.24 102.401 54.32V77.6C102.401 78.2933 102.161 78.88 101.681 79.36C101.255 79.7867 100.695 80 100.001 80C99.3079 80 98.7213 79.7867 98.2413 79.36C97.8146 78.88 97.6013 78.2933 97.6013 77.6V41.76C97.6013 41.0667 97.8146 40.5067 98.2413 40.08C98.7213 39.6 99.3079 39.36 100.001 39.36C100.695 39.36 101.255 39.6 101.681 40.08C102.161 40.5067 102.401 41.0667 102.401 41.76V46.16C103.841 43.8667 105.895 41.9733 108.561 40.48C111.281 38.9333 114.055 38.16 116.881 38.16ZM178.411 57.2C178.411 57.84 178.171 58.4 177.691 58.88C177.211 59.3067 176.651 59.52 176.011 59.52H145.771C145.771 62.72 146.411 65.6 147.691 68.16C149.025 70.6667 150.891 72.6667 153.291 74.16C155.745 75.6 158.625 76.32 161.931 76.32C164.491 76.32 166.785 75.7867 168.811 74.72C170.838 73.6533 172.465 72.2933 173.691 70.64C174.278 70.16 174.838 69.92 175.371 69.92C175.905 69.92 176.385 70.1333 176.811 70.56C177.238 70.9867 177.451 71.4667 177.451 72C177.451 72.5867 177.185 73.1467 176.651 73.68C174.945 75.76 172.785 77.4667 170.171 78.8C167.611 80.1333 164.891 80.8 162.011 80.8C157.905 80.8 154.278 79.92 151.131 78.16C147.985 76.4 145.531 73.9467 143.771 70.8C142.011 67.6 141.131 63.92 141.131 59.76C141.131 55.3867 141.985 51.5733 143.691 48.32C145.451 45.0133 147.771 42.5067 150.651 40.8C153.531 39.04 156.598 38.16 159.851 38.16C163.051 38.16 166.038 38.9067 168.811 40.4C171.638 41.8933 173.931 44.08 175.691 46.96C177.451 49.84 178.358 53.2533 178.411 57.2ZM159.851 42.8C156.758 42.8 153.878 43.8667 151.211 46C148.598 48.1333 146.918 51.2 146.171 55.2H173.451V54.56C173.185 52.16 172.385 50.08 171.051 48.32C169.718 46.5067 168.038 45.1467 166.011 44.24C164.038 43.28 161.985 42.8 159.851 42.8ZM185.984 73.52C185.558 72.8267 185.344 72.24 185.344 71.76C185.344 71.0667 185.691 70.5333 186.384 70.16C186.704 69.84 187.131 69.68 187.664 69.68C188.304 69.68 188.891 69.9467 189.424 70.48C192.571 74.64 196.758 76.72 201.984 76.72C204.544 76.72 206.758 76.1333 208.624 74.96C210.544 73.7333 211.504 71.9733 211.504 69.68C211.504 67.44 210.624 65.76 208.864 64.64C207.104 63.52 204.651 62.56 201.504 61.76C197.078 60.64 193.611 59.2 191.104 57.44C188.598 55.6267 187.344 52.9867 187.344 49.52C187.344 47.3333 187.958 45.3867 189.184 43.68C190.411 41.92 192.064 40.56 194.144 39.6C196.278 38.64 198.678 38.16 201.344 38.16C203.638 38.16 205.931 38.6133 208.224 39.52C210.571 40.3733 212.571 41.76 214.224 43.68C214.704 44.0533 214.944 44.5867 214.944 45.28C214.944 45.92 214.678 46.48 214.144 46.96C213.771 47.28 213.291 47.44 212.704 47.44C212.171 47.44 211.691 47.2267 211.264 46.8C209.984 45.36 208.464 44.2667 206.704 43.52C204.944 42.7733 203.051 42.4 201.024 42.4C198.518 42.4 196.358 42.9867 194.544 44.16C192.784 45.3333 191.904 47.0933 191.904 49.44C192.011 51.5733 192.971 53.2 194.784 54.32C196.651 55.44 199.371 56.4533 202.944 57.36C205.718 58.0533 208.011 58.8267 209.824 59.68C211.638 60.5333 213.104 61.7333 214.224 63.28C215.398 64.8267 215.984 66.88 215.984 69.44C215.984 72.9067 214.598 75.68 211.824 77.76C209.051 79.7867 205.611 80.8 201.504 80.8C194.998 80.8 189.824 78.3733 185.984 73.52ZM274.364 38.24C275.058 38.24 275.618 38.4533 276.044 38.88C276.524 39.3067 276.764 39.8933 276.764 40.64C276.764 40.6933 276.684 41.04 276.524 41.68L264.204 78.48C263.938 78.96 263.591 79.36 263.164 79.68C262.738 79.9467 262.284 80.0533 261.804 80C261.324 80 260.898 79.8667 260.524 79.6C260.151 79.3333 259.858 78.96 259.644 78.48L249.164 53.84L239.804 78.48C239.591 78.9067 239.271 79.28 238.844 79.6C238.471 79.8667 238.071 80 237.644 80C237.111 80.0533 236.604 79.9467 236.124 79.68C235.698 79.36 235.404 78.96 235.244 78.48L222.604 41.68C222.444 41.36 222.364 41.0133 222.364 40.64C222.364 39.9467 222.604 39.3867 223.084 38.96C223.564 38.48 224.151 38.24 224.844 38.24C225.324 38.24 225.751 38.4 226.124 38.72C226.551 38.9867 226.844 39.36 227.004 39.84L237.644 71.76L247.164 47.84C247.538 46.8267 248.284 46.32 249.404 46.32C250.471 46.32 251.218 46.8267 251.644 47.84L261.644 71.6L272.124 39.84C272.444 38.7733 273.191 38.24 274.364 38.24ZM320.521 57.2C320.521 57.84 320.281 58.4 319.801 58.88C319.321 59.3067 318.761 59.52 318.121 59.52H287.881C287.881 62.72 288.521 65.6 289.801 68.16C291.134 70.6667 293.001 72.6667 295.401 74.16C297.854 75.6 300.734 76.32 304.041 76.32C306.601 76.32 308.894 75.7867 310.921 74.72C312.947 73.6533 314.574 72.2933 315.801 70.64C316.387 70.16 316.947 69.92 317.481 69.92C318.014 69.92 318.494 70.1333 318.921 70.56C319.347 70.9867 319.561 71.4667 319.561 72C319.561 72.5867 319.294 73.1467 318.761 73.68C317.054 75.76 314.894 77.4667 312.281 78.8C309.721 80.1333 307.001 80.8 304.121 80.8C300.014 80.8 296.387 79.92 293.241 78.16C290.094 76.4 287.641 73.9467 285.881 70.8C284.121 67.6 283.241 63.92 283.241 59.76C283.241 55.3867 284.094 51.5733 285.801 48.32C287.561 45.0133 289.881 42.5067 292.761 40.8C295.641 39.04 298.707 38.16 301.961 38.16C305.161 38.16 308.147 38.9067 310.921 40.4C313.747 41.8933 316.041 44.08 317.801 46.96C319.561 49.84 320.467 53.2533 320.521 57.2ZM301.961 42.8C298.867 42.8 295.987 43.8667 293.321 46C290.707 48.1333 289.027 51.2 288.281 55.2H315.561V54.56C315.294 52.16 314.494 50.08 313.161 48.32C311.827 46.5067 310.147 45.1467 308.121 44.24C306.147 43.28 304.094 42.8 301.961 42.8ZM364.974 57.2C364.974 57.84 364.734 58.4 364.254 58.88C363.774 59.3067 363.214 59.52 362.574 59.52H332.334C332.334 62.72 332.974 65.6 334.254 68.16C335.587 70.6667 337.454 72.6667 339.854 74.16C342.307 75.6 345.187 76.32 348.494 76.32C351.054 76.32 353.347 75.7867 355.374 74.72C357.4 73.6533 359.027 72.2933 360.254 70.64C360.84 70.16 361.4 69.92 361.934 69.92C362.467 69.92 362.947 70.1333 363.374 70.56C363.8 70.9867 364.014 71.4667 364.014 72C364.014 72.5867 363.747 73.1467 363.214 73.68C361.507 75.76 359.347 77.4667 356.734 78.8C354.174 80.1333 351.454 80.8 348.574 80.8C344.467 80.8 340.84 79.92 337.694 78.16C334.547 76.4 332.094 73.9467 330.334 70.8C328.574 67.6 327.694 63.92 327.694 59.76C327.694 55.3867 328.547 51.5733 330.254 48.32C332.014 45.0133 334.334 42.5067 337.214 40.8C340.094 39.04 343.16 38.16 346.414 38.16C349.614 38.16 352.6 38.9067 355.374 40.4C358.2 41.8933 360.494 44.08 362.254 46.96C364.014 49.84 364.92 53.2533 364.974 57.2ZM346.414 42.8C343.32 42.8 340.44 43.8667 337.774 46C335.16 48.1333 333.48 51.2 332.734 55.2H360.014V54.56C359.747 52.16 358.947 50.08 357.614 48.32C356.28 46.5067 354.6 45.1467 352.574 44.24C350.6 43.28 348.547 42.8 346.414 42.8ZM394.307 38.8C397.827 38.8 401.027 39.7067 403.907 41.52C406.787 43.28 409.027 45.76 410.627 48.96C412.28 52.1067 413.107 55.6533 413.107 59.6C413.107 63.6 412.28 67.2 410.627 70.4C409.027 73.5467 406.787 76.0267 403.907 77.84C401.08 79.6533 397.907 80.56 394.387 80.56C391.294 80.56 388.44 79.84 385.827 78.4C383.267 76.9067 381.214 74.9333 379.667 72.48V93.6C379.667 94.2933 379.427 94.8533 378.947 95.28C378.52 95.76 377.96 96 377.267 96C376.574 96 375.987 95.76 375.507 95.28C375.08 94.8533 374.867 94.2933 374.867 93.6V41.44C374.867 40.7467 375.08 40.16 375.507 39.68C375.987 39.2 376.574 38.96 377.267 38.96C377.96 38.96 378.52 39.2 378.947 39.68C379.427 40.16 379.667 40.7467 379.667 41.44V46.88C381.054 44.3733 383.054 42.4 385.667 40.96C388.28 39.52 391.16 38.8 394.307 38.8ZM393.907 76.08C396.68 76.08 399.16 75.3867 401.347 74C403.587 72.56 405.32 70.5867 406.547 68.08C407.827 65.5733 408.467 62.7467 408.467 59.6C408.467 56.5067 407.827 53.7333 406.547 51.28C405.32 48.7733 403.587 46.8267 401.347 45.44C399.16 44 396.68 43.28 393.907 43.28C391.08 43.28 388.547 43.9733 386.307 45.36C384.067 46.7467 382.334 48.6933 381.107 51.2C379.88 53.6533 379.267 56.4533 379.267 59.6C379.267 62.7467 379.88 65.5733 381.107 68.08C382.334 70.5867 384.067 72.56 386.307 74C388.547 75.3867 391.08 76.08 393.907 76.08ZM457.552 57.2C457.552 57.84 457.312 58.4 456.832 58.88C456.352 59.3067 455.792 59.52 455.152 59.52H424.912C424.912 62.72 425.552 65.6 426.832 68.16C428.165 70.6667 430.032 72.6667 432.432 74.16C434.885 75.6 437.765 76.32 441.072 76.32C443.632 76.32 445.925 75.7867 447.952 74.72C449.979 73.6533 451.605 72.2933 452.832 70.64C453.419 70.16 453.979 69.92 454.512 69.92C455.045 69.92 455.525 70.1333 455.952 70.56C456.379 70.9867 456.592 71.4667 456.592 72C456.592 72.5867 456.325 73.1467 455.792 73.68C454.085 75.76 451.925 77.4667 449.312 78.8C446.752 80.1333 444.032 80.8 441.152 80.8C437.045 80.8 433.419 79.92 430.272 78.16C427.125 76.4 424.672 73.9467 422.912 70.8C421.152 67.6 420.272 63.92 420.272 59.76C420.272 55.3867 421.125 51.5733 422.832 48.32C424.592 45.0133 426.912 42.5067 429.792 40.8C432.672 39.04 435.739 38.16 438.992 38.16C442.192 38.16 445.179 38.9067 447.952 40.4C450.779 41.8933 453.072 44.08 454.832 46.96C456.592 49.84 457.499 53.2533 457.552 57.2ZM438.992 42.8C435.899 42.8 433.019 43.8667 430.352 46C427.739 48.1333 426.059 51.2 425.312 55.2H452.592V54.56C452.325 52.16 451.525 50.08 450.192 48.32C448.859 46.5067 447.179 45.1467 445.152 44.24C443.179 43.28 441.125 42.8 438.992 42.8ZM486.565 38.16C487.632 38.16 488.592 38.3733 489.445 38.8C490.298 39.2267 490.725 39.8667 490.725 40.72C490.725 41.4667 490.512 42.08 490.085 42.56C489.658 42.9867 489.152 43.2 488.565 43.2C488.298 43.2 487.765 43.0667 486.965 42.8C486.218 42.5333 485.498 42.4 484.805 42.4C482.832 42.4 480.858 43.1733 478.885 44.72C476.965 46.2133 475.365 48.16 474.085 50.56C472.858 52.96 472.245 55.3867 472.245 57.84V77.6C472.245 78.2933 472.005 78.88 471.525 79.36C471.098 79.7867 470.538 80 469.845 80C469.152 80 468.565 79.7867 468.085 79.36C467.658 78.88 467.445 78.2933 467.445 77.6V41.76C467.445 41.0667 467.658 40.5067 468.085 40.08C468.565 39.6 469.152 39.36 469.845 39.36C470.538 39.36 471.098 39.6 471.525 40.08C472.005 40.5067 472.245 41.0667 472.245 41.76V48.8C473.472 45.76 475.312 43.2533 477.765 41.28C480.272 39.2533 483.205 38.2133 486.565 38.16Z" fill="black"/>
<circle cx="82.5" cy="29.5" r="4.875" fill="#333333"/>
<rect x="75.9375" y="28.9375" width="13.125" height="1.125" rx="0.5625" fill="#333333"/>
<rect x="77.4619" y="33.7426" width="13.125" height="1.125" rx="0.5625" transform="rotate(-45 77.4619 33.7426)" fill="#333333"/>
<rect x="78.2574" y="24.4619" width="13.125" height="1.125" rx="0.5625" transform="rotate(45 78.2574 24.4619)" fill="#333333"/>
<rect x="83.0625" y="22.9375" width="13.125" height="1.125" rx="0.5625" transform="rotate(90 83.0625 22.9375)" fill="#333333"/>
<circle cx="80.9062" cy="27.9062" r="1.40625" fill="white" fill-opacity="0.5"/>
</svg>
